<?xml version="1.0" encoding="UTF-8"?>
<svg id="Layer_1" data-name="Layer 1" xmlns="http://www.w3.org/2000/svg" xmlns:xlink="http://www.w3.org/1999/xlink" viewBox="0 0 1173.12 482.58">
  <defs>
    <style>
      .cls-1 {
        fill: url(#linear-gradient-15);
      }

      .cls-2 {
        fill: url(#linear-gradient-13);
      }

      .cls-3 {
        fill: url(#linear-gradient-2);
      }

      .cls-4 {
        fill: url(#linear-gradient-10);
      }

      .cls-5 {
        fill: url(#linear-gradient-12);
      }

      .cls-6 {
        fill: #023b72;
      }

      .cls-7 {
        fill: #fff;
        stroke: #000;
      }

      .cls-7, .cls-8 {
        stroke-miterlimit: 10;
      }

      .cls-9 {
        fill: url(#linear-gradient-4);
      }

      .cls-10 {
        fill: url(#linear-gradient-3);
      }

      .cls-11 {
        filter: url(#drop-shadow-1);
      }

      .cls-12 {
        fill: url(#linear-gradient-5);
      }

      .cls-13 {
        fill: url(#linear-gradient-8);
      }

      .cls-8 {
        fill: #f74141;
        stroke: #fff;
      }

      .cls-14 {
        fill: url(#linear-gradient-14);
      }

      .cls-15 {
        fill: url(#linear-gradient-7);
      }

      .cls-16 {
        fill: url(#linear-gradient-9);
      }

      .cls-17 {
        fill: url(#linear-gradient-11);
      }

      .cls-18 {
        fill: url(#linear-gradient-6);
      }

      .cls-19 {
        fill: url(#linear-gradient-16);
      }

      .cls-20 {
        fill: url(#linear-gradient);
      }
    </style>
    <filter id="drop-shadow-1" x="412.85" y="108.41" width="593.6" height="274.95" filterUnits="userSpaceOnUse">
      <feOffset dx="7" dy="0"/>
      <feGaussianBlur result="blur" stdDeviation="0"/>
      <feFlood flood-color="#000" flood-opacity=".39"/>
      <feComposite in2="blur" operator="in"/>
      <feComposite in="SourceGraphic"/>
    </filter>
    <linearGradient id="linear-gradient" x1="298.84" y1="342.54" x2="407.92" y2="342.54" gradientUnits="userSpaceOnUse">
      <stop offset=".1" stop-color="#5dd3ff"/>
      <stop offset=".47" stop-color="#5bd1fd"/>
      <stop offset=".6" stop-color="#54cbf9"/>
      <stop offset=".7" stop-color="#48c2f1"/>
      <stop offset=".77" stop-color="#37b4e6"/>
      <stop offset=".84" stop-color="#21a2d8"/>
      <stop offset=".89" stop-color="#078cc6"/>
      <stop offset=".9" stop-color="#068bc6"/>
    </linearGradient>
    <linearGradient id="linear-gradient-2" x1="320.71" y1="249.24" x2="407.06" y2="249.24" gradientUnits="userSpaceOnUse">
      <stop offset=".1" stop-color="#5dd3ff"/>
      <stop offset=".47" stop-color="#5bd1fd"/>
      <stop offset=".6" stop-color="#54cbf9"/>
      <stop offset=".7" stop-color="#48c2f1"/>
      <stop offset=".77" stop-color="#37b4e6"/>
      <stop offset=".84" stop-color="#21a2d8"/>
      <stop offset=".89" stop-color="#078cc6"/>
      <stop offset=".9" stop-color="#068bc6"/>
    </linearGradient>
    <linearGradient id="linear-gradient-3" x1="347.41" y1="154.85" x2="400.93" y2="154.85" gradientUnits="userSpaceOnUse">
      <stop offset=".1" stop-color="#5dd3ff"/>
      <stop offset=".47" stop-color="#5bd1fd"/>
      <stop offset=".6" stop-color="#54cbf9"/>
      <stop offset=".7" stop-color="#48c2f1"/>
      <stop offset=".77" stop-color="#37b4e6"/>
      <stop offset=".84" stop-color="#21a2d8"/>
      <stop offset=".89" stop-color="#078cc6"/>
      <stop offset=".9" stop-color="#068bc6"/>
    </linearGradient>
    <linearGradient id="linear-gradient-4" x1=".02" y1="287.34" x2="432.48" y2="287.34" gradientUnits="userSpaceOnUse">
      <stop offset=".1" stop-color="#5dd3ff"/>
      <stop offset=".47" stop-color="#5bd1fd"/>
      <stop offset=".6" stop-color="#54cbf9"/>
      <stop offset=".7" stop-color="#48c2f1"/>
      <stop offset=".77" stop-color="#37b4e6"/>
      <stop offset=".84" stop-color="#21a2d8"/>
      <stop offset=".89" stop-color="#078cc6"/>
      <stop offset=".9" stop-color="#068bc6"/>
    </linearGradient>
    <linearGradient id="linear-gradient-5" x1="290.17" y1="74.65" x2="389.53" y2="74.65" gradientUnits="userSpaceOnUse">
      <stop offset=".21" stop-color="#5dd3ff"/>
      <stop offset=".33" stop-color="#48c2f1"/>
      <stop offset=".65" stop-color="#189ad2"/>
      <stop offset=".8" stop-color="#068bc6"/>
    </linearGradient>
    <linearGradient id="linear-gradient-6" x1="144.51" y1="171.83" x2="267.58" y2="171.83" gradientUnits="userSpaceOnUse">
      <stop offset=".21" stop-color="#5dd3ff"/>
      <stop offset=".33" stop-color="#48c2f1"/>
      <stop offset=".65" stop-color="#189ad2"/>
      <stop offset=".8" stop-color="#068bc6"/>
    </linearGradient>
    <linearGradient id="linear-gradient-7" x1="72.09" y1="114.51" x2="180.97" y2="114.51" xlink:href="#linear-gradient-6"/>
    <linearGradient id="linear-gradient-8" x1="31.44" y1="212.84" x2="126.39" y2="212.84" xlink:href="#linear-gradient-6"/>
    <linearGradient id="linear-gradient-9" x1="125" y1="284.7" x2="223.15" y2="284.7" xlink:href="#linear-gradient-6"/>
    <linearGradient id="linear-gradient-10" x1="200.54" y1="62.92" x2="329.31" y2="62.92" gradientUnits="userSpaceOnUse">
      <stop offset=".21" stop-color="#5dd3ff"/>
      <stop offset=".33" stop-color="#48c2f1"/>
      <stop offset=".65" stop-color="#189ad2"/>
      <stop offset=".8" stop-color="#068bc6"/>
    </linearGradient>
    <linearGradient id="linear-gradient-11" x1="241.72" y1="200.17" x2="340.61" y2="200.17" xlink:href="#linear-gradient-6"/>
    <linearGradient id="linear-gradient-12" x1="214.83" y1="311.95" x2="307.85" y2="311.95" xlink:href="#linear-gradient-6"/>
    <linearGradient id="linear-gradient-13" x1="202.66" y1="406.26" x2="289.99" y2="406.26" xlink:href="#linear-gradient-6"/>
    <linearGradient id="linear-gradient-14" x1="30.21" y1="328.89" x2="139.46" y2="328.89" xlink:href="#linear-gradient-6"/>
    <linearGradient id="linear-gradient-15" x1="125.89" y1="384.79" x2="195.99" y2="384.79" xlink:href="#linear-gradient-6"/>
    <linearGradient id="linear-gradient-16" x1="161.95" y1="39.9" x2="275.9" y2="39.9" xlink:href="#linear-gradient-6"/>
  </defs>
  <path class="cls-6" d="M983.45,474.7c-25.25,2.2-44.15,3.21-57.23,3.41-113.27,1.69-208.14.34-211.59.29,0,0-119.41-1.7-245.03-1.72-20.93,0-41.86,0-62.8,0-43.8,0-65.7,0-65.87,0-10.22.08-32.28.06-76.38.04-2.01,0-7.14.01-13.97-.25-7.1-.27-12.7-.71-15.58-.96-7.39-.63-17.12-1.74-28.68-3.8,0,0-9.86-1.77-19.36-4.12-2.47-.61-5.04-1.29-5.04-1.29-1.2-.32-2.54-.68-4.3-1.18-1.5-.43-2.62-.77-3.5-1.04-3.34-1.02-5.07-1.56-6.02-1.86-.17-.05-.73-.2-1.27-.4-.06-.02-.19-.07-.38-.14-.38-.13-.66-.22-.72-.25-.56-.18-1.85-.64-3.39-1.17-2-.68-2.8-.91-4.64-1.59h0c-1.52-.62-3.71-1.48-6.46-2.45-1.17-.47-2.35-.95-3.52-1.42-4.17-1.71-7.82-3.34-10.91-4.77-3.71-1.72-6.69-3.22-8.61-4.2-.75-.38-3.19-1.63-6.25-3.31-1.77-.97-7.26-4-13.33-7.82-13.39-8.44-23.54-16.93-31.3-23.47-1.06-.89-1.92-1.63-2.49-2.12-6.45-6.78-12.98-13.92-19.54-21.43-8.45-9.68-16.25-19.18-23.44-28.41,0,0-17.57-29.5-26.63-65.33-2.03-8.04-3.37-15.81-3.37-15.81-1.24-8.66-1.72-16.31-1.84-22.6-.07-3.72-.13-13.02,1.24-25.03.11-.97.57-4.92,1.43-10.16,1.07-6.51,2.85-15.56,5.86-26.08.53-1.84,4.55-15.72,10.97-30.21,14.34-32.36,36.02-57.35,43.08-65.39,12.21-13.89,29.47-33.53,55.18-48.79,9.36-5.55,22.59-12.09,49.06-25.16,1.5-.74,5-2.46,9.73-4.47,1.51-.64,6.85-2.89,14.46-5.46,11.15-3.77,20.09-5.84,26.33-7.28,4.84-1.12,9.62-2.08,10.1-2.18,3.17-.64,5.65-1.09,6.85-1.3,3.46-.62,6.09-1.04,6.89-1.16,3.13-.49,5.47-.81,5.97-.88,1.64-.22,4.21-.57,7.6-.91,2.24-.23,3.79-.39,5.78-.5,2.79-.16,3.82-.07,7.3-.1,6.78-.04,8.26-.39,15.8-.37,1.45,0,2.49.02,2.95.02,10.83.09,17.32,0,66.07,0,7.49,0,67.08,0,86.38,0,7.31,0,70.55.02,83.59.02,84.44.03,526.42.39,567.48-.02,2.46-.02,13.77-.15,28.62-.13,9.63.01,14.45.02,19.32.1,1.18.02,12.9.2,16.85.16.34,0,1.58-.02,3.26,0,1.65.02,2.04.05,3.14.06,2.03.03,2.38-.06,5.55-.12,3.69-.06,4.23.04,4.63.45.37.38.4.8.39,3.34,0,1.87-.01,2.81-.04,3.14-.1,1.52.01.83-.13,8.01-.2,10.21-.74,26.9-.85,43.52-.02,3.25-.04,8.18,0,14.25.16,23.31,2.17,146.68,2.28,235.4.02,14.06-.04,25.87-3.42,41.6-7.06,32.86-24.02,61.46-39.3,77.8-29.63,31.68-75.25,40.73-146.95,46.99Z"/>
  <g class="cls-11">
    <path class="cls-7" d="M551.09,236.64c18.97,26.96,34.39,50.9,46.24,71.81h1.19c-1.58-34.33-2.37-59.32-2.37-74.97v-119.56h48.29v263.94h-51.15l-85.93-121.67c-15.11-21.06-30.75-45.49-46.91-73.28h-1.18c.46,14.43.84,28.86,1.15,43.29.48,22.51.78,45.03.89,67.54.11,28.04.21,56.07.32,84.11h-48.29V113.92h50.79l86.96,122.71Z"/>
    <path class="cls-7" d="M707.82,377.87V113.92h48.29v263.94h-48.29Z"/>
    <path class="cls-7" d="M949.16,302.14c0-6.71-1.65-12.14-4.94-16.28-3.29-4.14-7.77-7.53-13.43-10.16-5.66-2.63-12.02-4.77-19.07-6.41-7.05-1.64-14.46-3.26-22.23-4.84-10.27-2.24-20.09-4.9-29.44-7.99-9.35-3.09-17.58-7.37-24.7-12.83-7.11-5.46-12.78-12.4-16.99-20.82-4.22-8.42-6.32-18.95-6.32-31.58,0-13.94,2.44-26.08,7.31-36.41,4.87-10.33,11.49-18.88,19.86-25.66,8.36-6.78,18.18-11.84,29.44-15.2,11.26-3.36,23.94-5.03,38.03-5.03s28.25,1.38,42.48,4.14c14.22,2.76,26.47,6.32,36.75,10.66v41.45c-13.7-5.39-26.84-9.31-39.41-11.74-12.58-2.43-24.4-3.65-35.46-3.65-15.94,0-28.22,2.89-36.85,8.68-8.63,5.79-12.94,14.48-12.94,26.05,0,6.71,1.41,12.24,4.25,16.58,2.83,4.34,6.68,7.93,11.56,10.76,4.87,2.83,10.47,5.1,16.79,6.81,6.32,1.71,13.04,3.29,20.15,4.74,11.19,2.37,21.9,5.1,32.1,8.19,10.2,3.09,19.26,7.4,27.17,12.93s14.16,12.73,18.77,21.61c4.61,8.88,6.91,20.23,6.91,34.05s-2.64,26.52-7.9,36.91c-5.27,10.39-12.74,18.98-22.42,25.76-9.68,6.78-21.44,11.81-35.27,15.1-13.83,3.29-28.98,4.93-45.44,4.93-14.36,0-28.48-1.41-42.38-4.24-13.9-2.83-25.46-6.81-34.67-11.94v-40.86c13.04,5.66,25.75,9.77,38.13,12.34,12.38,2.57,25.16,3.85,38.33,3.85,7.64,0,15.14-.62,22.52-1.88,7.38-1.25,13.99-3.39,19.86-6.41,5.86-3.03,10.57-7.14,14.13-12.34,3.56-5.2,5.33-11.61,5.33-19.24Z"/>
  </g>
  <g>
    <path class="cls-20" d="M407.7,327.41c.76.71-.68,1.22-1.22,1.68-3.86,3.27-11.17,6.29-16,8.49-18.5,8.42-40.38,14.86-60.7,17.74-7.33,1.04-20.45,2.71-27.59,2.28-.63-.04-1.59.1-2.11-.16-1.67-.83-1.75-6.51.3-7.35,1.19-.49,13.34.29,16,.21,30.87-.9,56.97-7.91,84.89-19.82,2.22-.95,4.65-.85,6.41-3.07Z"/>
    <path class="cls-3" d="M325.37,251.83c5.51,0,11.36,1.09,16.93,1.07,17.89-.07,46.62-4.35,62.17-11.88.85-.41,1.53-1.23,2.59-.37-5.74,3.78-13.41,6.49-20.12,8.66-15.49,5.02-35.57,8.63-52.11,8.89-2.3.04-10.93.03-12.58-.5-1.81-.58-1.87-4.08-1-5.14.62-.76,3.05-.73,4.11-.73Z"/>
    <path class="cls-10" d="M349.46,159.16l-2.05-3.37c.62-2.18,10.21-.43,12.64-.39,5.3.08,10.56-.18,15.84-.3l25.03-4.56c-2,1.83-5.05,2.79-7.71,3.65-13.72,4.42-29.25,4.6-43.76,4.97Z"/>
    <path class="cls-9" d="M27.79,353.73c-2.56-4.28-5.97-10.37-9.47-17.91C3.52,303.93.52,274.73.07,257.49c-.09-3.32-.6-28.56,5.96-54.25,2.77-10.84,7.04-22.71,7.41-23.74,1.61-4.46,4.09-11.26,7.88-19.44,6.51-14.07,13.1-24.04,17.75-31.01,5.47-8.2,12.77-18.18,22.24-28.96-5.15,9.31-10.29,18.61-15.44,27.92-8.17,15.98-53.17,107.67-10.57,199.62,22.59,48.77,59.3,74.91,76.54,86.86,95.72,66.38,229.24,57.77,315.96,11.92,1.99-1.05,3.61-1.94,4.69-2.54-1.59,1.64-3.55,3.55-5.88,5.6,0,0-3.07,2.7-6.41,5.19-45.15,33.7-127.62,38.75-127.62,38.75-36.13,2.21-108.39,5.71-178.35-35.64-16.39-9.69-28.73-19.52-36.84-26.58-12.66-11.31-25.99-25.15-38.66-41.93-3.96-5.25-7.6-10.45-10.94-15.54Z"/>
    <g>
      <path class="cls-12" d="M389.53,23.61c-14.66,38.17-29.32,76.35-43.97,114.52-1.41,1.53-3.03-.15-4.75-.27-15.65-1.11-31.13-6.35-46.85-7.71-6.53-2.64-2.94-12.38-1.48-17.01,5.65-17.91,17-38.82,25.81-55.58,7.04-13.39,15.75-31.08,24.21-43.23,1.21-1.74,2-3.38,4.33-3.65,3.04-.35,5.53-.28,13.24,2.33,4.6,1.55,8.26,2.82,10.48,3.6,6.33,2.34,12.65,4.67,18.98,7.01Z"/>
      <path class="cls-18" d="M267.58,136.87l-39.87,105.64c-1.24.91-6.35-.73-8.02-1.26-19.24-6.11-51.78-20.7-68.98-31.37-5.67-3.52-6.75-3.4-5.95-9.9,1.2-9.79,8.26-25.66,12.16-35.1,7-16.93,15.47-35.87,24.8-51.53,1.44-2.42,6.27-10.68,8.07-11.89,2.21-1.48,5.32.17,7.57,1.31,5.54,2.79,10.96,7.39,16.43,10.58,16.65,9.68,35.9,16.77,53.8,23.53Z"/>
      <path class="cls-15" d="M127.26,193.8c-1.79-.34-8.05-5.17-9.79-6.63-22.72-18.94-56.78-61.42-41.61-90.63,8.33-16.03,43.98-45.7,59.69-56.1,3.24-2.14,6.95-3.27,10.24-5.29,1.79.27,6.33,17.1,7.6,19.87,6.4,14,17.52,25.16,27.59,36.82-9.73,16.77-19.45,33.53-27.69,51.13-6.46,13.81-11.54,31.11-18.68,43.99-1.56,2.81-3.47,7.58-7.35,6.84Z"/>
      <path class="cls-13" d="M118.9,251.13c-2.4,15.91-2.29,34.54-5.48,49.75-.45,2.17-.85,8.09-4.15,7.35-.55-.12-8.06-5.46-9.32-6.39-25.88-18.96-53-47.28-63.77-77.15-13.93-38.64,5.45-75.47,23.66-107.29,1.84,6.55,2.12,13.44,4.47,19.92,3.58,9.89,10.75,21.77,17.24,30.28,12.87,16.88,29.51,30.15,44.83,44.75-2.66,12.9-5.52,25.72-7.49,38.78Z"/>
      <path class="cls-16" d="M125.29,298.07c.83-20.47,4.94-51.28,11.06-70.39.58-1.8,1.95-7.33,3.47-7.81s16.76,8.12,19.43,9.42c7.32,3.56,14.74,7.12,22.2,10.35,13.56,5.86,27.54,10.37,41.27,15.7,1.03,1.47-.11,6.47-.53,8.28-2.15,9.38-6.27,19.23-8.78,28.59-4.96,18.48-8.72,37.42-13.57,55.88-.56.57-1.19,1.17-1.98,1.42-2.41.76-35.73-13.13-40.52-15.28-9.83-4.42-19.53-9.54-29.11-14.52-4.29-3.87-3.17-16.16-2.95-21.63Z"/>
      <path class="cls-4" d="M307.43,2.65c2.48.14,7.66.84,10.21,1.29,1.94.35,11.12,2.17,11.67,3.45-13.07,25-26.85,50.04-39.05,75.66-4.32,9.07-7.75,19.19-12.22,28.12-1.9,3.79-5.45,11.98-10.4,12.14-.77.03-11.4-3.77-13.08-4.43-11.07-4.37-25.6-11.61-36.03-17.54-4.23-2.4-16.64-9.31-17.9-13.33-1-3.19,5.69-11.04,7.8-13.83,17.81-23.51,57.49-63.71,86.74-71.18,2.45-.63,9.42-.52,12.25-.36Z"/>
      <path class="cls-17" d="M316.01,236.67c-1.57,5.73-2.8,15.91-5.26,20.93-.33.68-.27,1.6-1.36,1.65-22.65-2.2-45.46-5.25-67.58-11.53-.83-1.39,4.48-17.01,5.35-19.78,9.16-29.16,20.23-57.9,31.94-85.94l2-.92c7.02,1.01,13.81,3.48,20.76,4.86,8.45,1.67,17.5,3.14,26.02,4.14,3.3.39,7.63-.05,10.98.6.87.17,1.33.14,1.75,1.13-8.09,28.31-16.84,56.44-24.59,84.85Z"/>
      <path class="cls-5" d="M297.66,319.33c-2.54,13.53-4.84,27.05-6.15,40.81-1.18,3.28-8.72,2.53-12.23,2.5-13.5-.11-29.34-2.28-42.76-4.89-7.25-1.41-14.44-3.96-21.7-4.39,3.1-15.73,6.15-31.48,9.87-47.04,2.78-11.65,5.88-26.1,9.48-37.33,2.61-8.15,2.65-8.56,11.71-7.27,12.02,1.71,24.07,5.68,36.07,7.66,8.46,1.4,16.97,1.83,25.46,2.75.74.64.31,1.94.22,2.72-.82,7.17-4.46,16.8-6.08,24.3-1.44,6.68-2.64,13.46-3.9,20.18Z"/>
      <path class="cls-2" d="M287.32,405.41c-.57,11.99-.2,24.08-.41,36.05-3.72,5.08-30.52,4.42-37.53,4.12-14.96-.65-29.73-3.43-44.62-5.56l-2.09-1.7,3.53-34.22c1.48-8.26,2.75-16.54,4.24-24.79.88-4.91-.11-13.41,7.66-12.48,6.97.83,14.36,3.23,21.23,4.35,16.78,2.73,33.7,3.37,50.52,3.65.65,5.06-1.1,9.49-1.59,14.2-.56,5.45-.68,10.92-.94,16.39Z"/>
      <path class="cls-14" d="M139.15,417.71c-8.91-6.25-18-12.43-26.56-19.18-20.06-15.83-36.38-30.83-49.96-52.48-16.68-26.58-33.35-72.67-32.37-103.09.03-1.08-.24-2.3.91-2.9,2.68,4.56,4.41,9.64,7.03,14.22,12.47,21.8,39.71,47.85,60.6,62.47,4.13,2.89,10.74,5.41,13.56,9.55,2.22,3.26,4.19,23.03,5.36,28.68,2.87,13.78,7.18,29.56,12.69,42.69,2.41,5.75,6.65,12.14,8.71,17.48.23.61.63,2.57.04,2.56Z"/>
      <path class="cls-1" d="M193.39,378.61c-2.09,14.31-4,28.82-6.37,43.09-.26,1.54-1.9,10.82-2.26,11.28-1.63,2.05-5.49.36-7.71-.25-5.12-1.4-14.99-4.74-19.03-8-9.42-7.61-19.88-36.96-23.71-48.87-1.64-5.09-10.09-37.08-8.12-39.78,1.19-1.62,8.73,1.34,10.73,2.07,9.85,3.56,19.45,8.47,29.24,12.29,9.38,3.66,19.04,6.66,28.49,10.14,1.03.58,1.1,1.31,1.27,2.3.49,2.8-2.01,12.15-2.54,15.73Z"/>
      <path class="cls-19" d="M188.84,79.52c-13.23-10.86-24.93-27.01-26.59-43.76-.56-5.66-.86-7.26,4.18-10.34C187.51,12.58,235.66,2.12,261.34.53c1.78-.11,13.88-.52,14.37.03.68.77-.6,1.4-1.07,1.73-2.25,1.57-5.19,2.17-7.48,3.62-28.21,17.86-52.92,44.51-74.64,69.37-1.07,1.23-1.37,3.68-3.68,4.25Z"/>
    </g>
  </g>
  <path class="cls-8" d="M1090.8,150.67c-3,1.1-1.3-50.24-38.82-83.21-37.47-32.93-90.22-26.6-89.37-29.58.92-3.2,63.03-15.46,100.68,17.61,37.7,33.12,30.72,94.01,27.51,95.18Z"/>
  <path class="cls-8" d="M1063.61,158.52c-2.39.81-2.39-40.39-33.6-67.81-31.16-27.38-73.62-23.61-73.01-25.98.66-2.54,50.53-10.86,81.84,16.65,31.35,27.54,27.34,76.28,24.77,77.15Z"/>
  <path class="cls-8" d="M1033.31,167.16c-2.06.85.92-34.17-23.21-55.37-24.1-21.18-59.91-15.11-59.22-17.17.73-2.21,43.07-12.63,67.28,8.64,24.24,21.3,17.35,63,15.14,63.9Z"/>
</svg>