<?xml version="1.0" encoding="UTF-8"?>
<svg id="Layer_1" xmlns="http://www.w3.org/2000/svg" version="1.1" viewBox="0 0 1920 1080">
  <!-- Generator: Adobe Illustrator 29.5.1, SVG Export Plug-In . SVG Version: 2.1.0 Build 141)  -->
  <defs>
    <style>
      .st0 {
        stroke-width: 4px;
      }

      .st0, .st1, .st2, .st3, .st4 {
        fill: #c1272d;
      }

      .st0, .st1, .st2, .st4 {
        stroke: #c1272d;
      }

      .st0, .st1, .st2, .st4, .st5, .st6, .st7 {
        stroke-miterlimit: 10;
      }

      .st2, .st7 {
        stroke-width: .5px;
      }

      .st8 {
        fill: #006837;
      }

      .st4, .st6 {
        stroke-width: 12px;
      }

      .st9, .st5, .st6, .st7 {
        fill: #1b1464;
      }

      .st5, .st6, .st7 {
        stroke: #1b1464;
      }
    </style>
  </defs>
  <g>
    <path class="st3" d="M892.18,423.39c3.06-3.96,7.23-5.9,9.41-6.89,0,0,17.02-7.7,46.89,1.39h.02c.13.04.82.25,1.75.51.98.28,1.69.46,1.87.51,2.94.77,5.26,2.14,5.64,1.78.46-.44-2.31-3.03-3.73-4.36-1.35-1.27-2.53-2.25-2.85-2.5-20.5-16.2-49.17-15-49.17-15-4.35.18-15.97.67-26.68,5.86-24.05,11.67-31.35,41.18-29.56,61.85,3.41,39.22,41.61,69.68,81.88,101.79,2.06,1.64,3.79,2.99,5.02,3.94-.14-3.23-.28-6.43-.41-9.59-8.48-6.93-19.59-16.01-20.42-16.68-.07-.06-.1-.07-.26-.2-3.29-2.5-3.6-3.03-4.56-3.11-.7-.05-.58.23-2.15.37-.49.04-1.37.11-2.45-.03-.09-.01-1.41-.2-2.69-.78-1.3-.59-3.56-2.03-4.33-4.55-.1-.31-1.12-3.93,2.01-6.64,2.69-2.33,6.32-2.14,6.88-2.11.54.04,3.48.27,5.68,2.32,3.01,2.79,1.94,6.44,1.84,6.77,1.16.67,2.86,1.68,4.83,3.03,2.82,1.92,4.53,3.45,6.69,5.12,3.45,2.67,6.35,4.91,8.52,6.6-.09-2.11-.18-4.23-.28-6.36-.08-1.75-.16-3.49-.25-5.23-.6-.57-1.73-1.65-3.14-3-3.85-3.7-16.91-16.25-25.46-21.14-2.02-1.15-3.39-1.61-4.58-1.77-3.14-.42-4.56.12-6.83-.11-3.69-.37-7.56-3.08-8.68-6.44-1.53-4.57,2.01-10.46,8.23-11.69,4.91-.97,10.21,1.22,11.79,4.12,1.07,1.95.3,3.3,1.53,6.37.76,1.89,2.25,3,3.19,3.82,3.41,3,12.04,10.11,23.72,19.36-.13-3.01-.29-6.06-.49-9.14-.08-1.18-.16-2.35-.24-3.52-2.77-2.6-5.6-5.21-8.5-7.82-9.84-8.88-19.69-17.17-29.45-24.92-1.96.23-4.84.42-8.25.05-2.62-.28-5.03-.55-7.23-1.63-4.27-2.11-7.12-7-6.19-11.87,1.01-5.24,6.13-9.22,11.64-10.16,4.27-.72,7.84.54,8.55.8,1.03.38,3.36,1.37,5.32,3.44,2.33,2.48,4.34,6.74,2.69,10.16-.52,1.08-1.25,1.75-1.03,2.87.26,1.37,1.68,2.09,3.28,3.13.02.01,2.15,1.82,6.42,5.45,2.62,2.23,4.14,3.72,5.7,5.17,2.92,2.73,7.82,7.06,16.52,14.12-.01-3.68-.06-7.4-.14-11.16-.03-1.35-.06-2.69-.1-4.03-7.88-6.43-13.81-12.27-17.91-16.6-22.85-24.13-23.14-37.67-23.08-40.59.12-6.33,2.78-10.02,3.6-11.08h-.02Z"/>
    <ellipse class="st8" cx="884.97" cy="473.25" rx="8.85" ry="7.3" transform="translate(-14.27 27.72) rotate(-1.78)"/>
    <ellipse class="st8" cx="893.18" cy="506.02" rx="6.62" ry="5.46" transform="translate(-15.29 27.99) rotate(-1.78)"/>
    <ellipse class="st8" cx="903.75" cy="536.12" rx="5.12" ry="4.23" transform="translate(-16.22 28.33) rotate(-1.78)"/>
    <g>
      <path class="st9" d="M1013.1,496.49c-3.06,3.96-7.23,5.9-9.41,6.89,0,0-17.02,7.7-46.89-1.39h-.02c-.13-.04-.82-.25-1.75-.51-.98-.28-1.69-.46-1.87-.51-2.94-.77-5.26-2.14-5.64-1.78-.46.44,2.31,3.03,3.73,4.36,1.35,1.27,2.53,2.25,2.85,2.5,20.5,16.2,49.17,15,49.17,15,4.35-.18,15.97-.67,26.68-5.86,24.05-11.67,31.35-41.18,29.56-61.85-3.41-39.22-41.61-69.68-81.88-101.79-2.06-1.64-3.79-2.99-5.02-3.94.14,3.23.28,6.43.41,9.59,8.48,6.93,19.59,16.01,20.42,16.68.07.06.1.07.26.2,3.29,2.5,3.6,3.03,4.56,3.11.7.05.58-.23,2.15-.37.49-.04,1.37-.11,2.45.03.09.01,1.41.2,2.69.78,1.3.59,3.56,2.03,4.33,4.55.1.31,1.12,3.93-2.01,6.64-2.69,2.33-6.32,2.14-6.88,2.11-.54-.04-3.48-.27-5.68-2.32-3.01-2.79-1.94-6.44-1.84-6.77-1.16-.67-2.86-1.68-4.83-3.03-2.82-1.92-4.53-3.45-6.69-5.12-3.45-2.67-6.35-4.91-8.52-6.6.09,2.11.18,4.23.28,6.36.08,1.75.16,3.49.25,5.23.6.57,1.73,1.65,3.14,3,3.85,3.7,16.91,16.25,25.46,21.14,2.02,1.15,3.39,1.61,4.58,1.77,3.14.42,4.56-.12,6.83.11,3.69.37,7.56,3.08,8.68,6.44,1.53,4.57-2.01,10.46-8.23,11.69-4.91.97-10.21-1.22-11.79-4.12-1.07-1.95-.3-3.3-1.53-6.37-.76-1.89-2.25-3-3.19-3.82-3.41-3-12.04-10.11-23.72-19.36.13,3.01.29,6.06.49,9.14.08,1.18.16,2.35.24,3.52,2.77,2.6,5.6,5.21,8.5,7.82,9.84,8.88,19.69,17.17,29.45,24.92,1.96-.23,4.84-.42,8.25-.05,2.62.28,5.03.55,7.23,1.63,4.27,2.11,7.12,7,6.19,11.87-1.01,5.24-6.13,9.22-11.64,10.16-4.27.72-7.84-.54-8.55-.8-1.03-.38-3.36-1.37-5.32-3.44-2.33-2.48-4.34-6.74-2.69-10.16.52-1.08,1.25-1.75,1.03-2.87-.26-1.37-1.68-2.09-3.28-3.13-.02-.01-2.15-1.82-6.42-5.45-2.62-2.23-4.14-3.72-5.7-5.17-2.92-2.73-7.82-7.06-16.52-14.12.01,3.68.06,7.4.14,11.16.03,1.35.06,2.69.1,4.03,7.88,6.43,13.81,12.27,17.91,16.6,22.85,24.13,23.14,37.67,23.08,40.59-.12,6.33-2.78,10.02-3.6,11.08h.02Z"/>
      <ellipse class="st9" cx="1020.35" cy="446.52" rx="8.85" ry="7.3" transform="translate(-13.38 31.9) rotate(-1.78)"/>
      <ellipse class="st9" cx="1012.15" cy="413.75" rx="6.62" ry="5.46" transform="translate(-12.36 31.64) rotate(-1.78)"/>
      <ellipse class="st9" cx="1001.58" cy="383.67" rx="5.12" ry="4.23" transform="translate(-11.43 31.3) rotate(-1.78)"/>
    </g>
  </g>
  <g>
    <path class="st4" d="M740.27,684.05l31.8-43.83,35.82,43.46c8.01-.03,16.02-.04,24.04-.06l37.2-51.35c-6.08,0-12.16,0-18.24-.01l-31.34,43.24-35.85-43.44c-7.98-.03-15.96-.06-23.93-.1l-37.84,52.23c.07,0,9.11-.07,9.17-.07.07,0,9.1-.07,9.17-.07Z"/>
    <path class="st6" d="M886.79,683.55l37.03-51.28h-18.12l-37.15,51.28h18.24Z"/>
    <path class="st0" d="M916.79,688.11c29.25.03,58.49.05,87.74.08,2.25-3.24,4.51-6.48,6.76-9.72-2.54,0-6.92.01-12.35.04-22.38.12-30.86.37-47.31.3-3.42-.01-8.79-.05-15.44-.15,1.03-1.81,2.06-3.63,3.12-5.45,6.4-11.07,12.99-21.73,19.72-32.01.97-.79,2.43-1.79,4.42-2.51,1.85-.67,3.42-.82,4.19-.9,6.29-.67,23.19-.17,32.46-.13.18,0-.06,0,2.54,0,8.93,0,21.28.02,37.06.08,2.24-3.21,4.49-6.41,6.74-9.62h-91.86c-.58,0-1.12.27-1.4.7-12.6,19.07-25.2,38.14-37.8,57.21-.61.93.16,2.08,1.4,2.08h.01ZM936.2,678.65h0c-1.24-.01-1.5-.02,0,0Z"/>
  </g>
  <path class="st5" d="M1187.63,626.62h-122.32c-2.85,4.13-5.7,8.26-8.56,12.39h122.18c2.9-4.13,5.79-8.26,8.69-12.39h.01Z"/>
  <path class="st5" d="M1152.15,677.3h-121.98c-2.87,4.13-5.74,8.26-8.62,12.39h121.96l8.64-12.39Z"/>
  <path class="st5" d="M1169.91,650.43h-122.09c-2.86,5.07-5.72,10.15-8.59,15.23h122.01c2.89-5.08,5.79-10.15,8.68-15.23h-.01Z"/>
  <ellipse class="st1" cx="929.15" cy="600.34" rx="28.8" ry="20.25"/>
  <g>
    <path class="st7" d="M774.62,732.14v-23.49h7.33l11.84,18.01-.53.42v-18.43h5.73v23.49h-7.38l-11.8-17.74.53-.42v18.16h-5.73,0Z"/>
    <path class="st7" d="M805.24,713.08v-4.43h6v4.43h-6ZM805.24,732.15v-16.78h6v16.78h-6Z"/>
    <path class="st7" d="M826.43,732.4c-3.25,0-5.78-.68-7.57-2.04s-2.69-3.27-2.69-5.74v-1.79c0-2.45.9-4.34,2.69-5.68s4.32-2.01,7.57-2.01c1.87,0,3.56.23,5.07.7s2.71,1.13,3.6,1.99l-3.87,2.78c-.54-.38-1.19-.67-1.94-.88s-1.54-.32-2.35-.32c-1.52,0-2.69.3-3.52.9s-1.25,1.44-1.25,2.53v1.79c0,1.12.42,1.99,1.25,2.59s2.01.91,3.52.91c.82,0,1.6-.11,2.35-.34s1.4-.55,1.94-.97l3.87,2.94c-.89.84-2.09,1.49-3.6,1.95s-3.2.69-5.07.69h0Z"/>
    <path class="st7" d="M848.88,732.4c-3.3,0-5.85-.65-7.67-1.96s-2.72-3.16-2.72-5.55v-1.89c0-2.5.87-4.44,2.62-5.8s4.21-2.05,7.39-2.05c3.01,0,5.33.82,6.97,2.45s2.46,3.93,2.46,6.9v1.1h-15.54v-2.99h10.07l-.07-.39c-.16-.96-.57-1.71-1.23-2.24s-1.55-.8-2.67-.8c-1.44,0-2.56.32-3.36.95s-1.19,1.54-1.19,2.7v2.13c0,1.14.43,2.03,1.3,2.65s2.08.94,3.64.94c.8,0,1.6-.11,2.39-.32s1.5-.51,2.14-.9l3.92,2.57c-1.18.8-2.51,1.41-3.98,1.85s-2.96.65-4.46.65h-.01Z"/>
    <path class="st2" d="M881.43,708.65v23.51h-6.22v-23.51h6.22Z"/>
    <path class="st2" d="M886.57,732.15v-4.43h6v4.43h-6Z"/>
    <path class="st2" d="M892.68,712.91v-4.27h23.33v4.27h-23.33ZM901.34,732.15v-21.58h6v21.58h-6Z"/>
    <path class="st2" d="M915.46,732.15v-4.43h6v4.43h-6Z"/>
    <path class="st7" d="M949.08,732.4c-1.52,0-3-.11-4.45-.34s-2.81-.56-4.08-.99-2.41-.96-3.44-1.58l2.78-3.65c1.23.74,2.64,1.32,4.25,1.72s3.25.61,4.95.61c1.96,0,3.47-.25,4.55-.74s1.62-1.18,1.62-2.08v-.02c0-.68-.27-1.2-.81-1.56s-1.25-.63-2.13-.8-1.84-.32-2.88-.44c-1.24-.14-2.5-.32-3.76-.53s-2.44-.54-3.5-1-1.92-1.11-2.57-1.96-.97-1.99-.97-3.41v-.02c0-2.3,1.02-4.07,3.06-5.33s4.93-1.88,8.67-1.88c1.72,0,3.47.21,5.25.64s3.44,1.03,4.97,1.82l-2.54,3.75c-1.23-.64-2.51-1.12-3.84-1.46s-2.62-.51-3.84-.51c-1.84,0-3.26.22-4.27.67s-1.51,1.08-1.51,1.88v.02c0,.75.3,1.33.9,1.71s1.38.68,2.34.86,2,.36,3.11.53c1.23.17,2.44.39,3.66.64s2.32.62,3.33,1.09,1.81,1.13,2.41,1.96.9,1.91.9,3.23v.03c0,2.26-1.06,4.02-3.17,5.26s-5.1,1.87-8.95,1.87h-.04Z"/>
    <path class="st7" d="M975.39,732.4c-3.12,0-5.54-.64-7.24-1.92s-2.56-3.07-2.56-5.39v-2.73c0-2.3.85-4.07,2.56-5.34s4.12-1.89,7.24-1.89,5.54.63,7.24,1.89,2.56,3.04,2.56,5.34v2.78c0,2.31-.85,4.09-2.56,5.36s-4.12,1.9-7.24,1.9h0ZM975.36,728.13c1.21,0,2.15-.26,2.82-.78s1.01-1.26,1.01-2.21v-2.78c0-.94-.34-1.67-1.01-2.18s-1.61-.78-2.82-.78-2.13.26-2.79.78-1,1.24-1,2.18v2.78c0,.95.33,1.68,1,2.21s1.59.78,2.79.78Z"/>
    <path class="st7" d="M996.66,708.65v17.96c0,.4.16.71.47.94s.76.34,1.35.34h1.01v4.27h-3.06c-1.82,0-3.24-.39-4.25-1.16s-1.51-1.87-1.51-3.28v-19.06h6,0Z"/>
    <path class="st7" d="M1009.42,715.37v10.2c0,.81.31,1.44.93,1.88s1.49.67,2.62.67,1.99-.23,2.59-.69.91-1.11.91-1.96l.31,3.67c-.38.83-1.05,1.58-2,2.25s-2.19,1-3.71,1c-2.44,0-4.32-.58-5.65-1.75s-1.99-2.8-1.99-4.91v-10.36h6,0ZM1016.47,732.15v-16.78h5.98v16.78h-5.98Z"/>
    <path class="st7" d="M1026.6,719.15v-3.78h11.12v3.78h-11.12ZM1034.7,732.23c-2.03,0-3.49-.38-4.4-1.15s-1.36-1.86-1.36-3.3v-17.3h6v16.2c0,.4.11.71.33.94s.54.34.96.34h1.49v4.27h-3.02,0Z"/>
    <path class="st7" d="M1042.64,713.08v-4.43h6v4.43h-6ZM1042.64,732.15v-16.78h6v16.78h-6Z"/>
    <path class="st7" d="M1063.37,732.4c-3.12,0-5.54-.64-7.24-1.92s-2.56-3.07-2.56-5.39v-2.73c0-2.3.85-4.07,2.56-5.34s4.12-1.89,7.24-1.89,5.54.63,7.24,1.89,2.56,3.04,2.56,5.34v2.78c0,2.31-.85,4.09-2.56,5.36s-4.12,1.9-7.24,1.9h0ZM1063.35,728.13c1.21,0,2.15-.26,2.82-.78s1.01-1.26,1.01-2.21v-2.78c0-.94-.34-1.67-1.01-2.18s-1.61-.78-2.82-.78-2.13.26-2.79.78-1,1.24-1,2.18v2.78c0,.95.33,1.68,1,2.21s1.59.78,2.79.78Z"/>
    <path class="st7" d="M1078.65,732.15v-16.78h6v16.78h-6ZM1091.78,732.15v-10.17c0-.83-.32-1.47-.95-1.92s-1.54-.67-2.7-.67-1.97.23-2.57.69-.91,1.1-.91,1.93l-.46-3.72c.66-1.01,1.46-1.79,2.4-2.34s2.16-.82,3.67-.82c2.39,0,4.25.6,5.56,1.79s1.97,2.88,1.97,5.05v10.19h-6.01Z"/>
  </g>
</svg>